<?xml version="1.0" standalone="yes"?>
<svg xmlns="http://www.w3.org/2000/svg" width="1971" height="1776">
<path style="fill:#ffffff; stroke:none;" d="M0 0L0 1776L1971 1776L1971 0L0 0z"/>
<path style="fill:#45b8d7; stroke:none;" d="M774 218L774 1539C788.733 1541.17 803.355 1546.22 818 1549.2C845.086 1554.7 872.521 1558.22 900 1560.83C976.521 1568.11 1051.2 1557.43 1126 1542L1126 1142L945 1142L945 734L1126 734L1126 215C1104.92 212.161 1084.11 205.699 1063 202.424C1023.86 196.354 983.604 193.045 944 194.015C906.219 194.94 868.267 198.703 831 205.424C811.952 208.86 793.112 215.426 774 218z"/>
<path style="fill:#4bc7cc; stroke:none;" d="M1126 216L1126 734L1625 734C1588.06 543.499 1456.99 372.505 1288 279.694C1253.51 260.755 1217.93 245.441 1181 231.947C1163.98 225.725 1144.15 217.482 1126 216z"/>
<path style="fill:#3ea6e4; stroke:none;" d="M774 1538L774 219C753.765 221.727 733.043 230.85 714 237.95C663.24 256.874 614.599 282.235 570 312.974C555.656 322.861 541.607 333.114 528 344C523.044 347.965 515.083 352.399 512.028 358.089C509.283 363.202 511 372.332 511 378L511 427L511 602L511 1177L511 1336L511 1380C511 1385.49 509.423 1393.98 512.028 1398.96C515.205 1405.04 523.743 1409.79 529 1414C542.569 1424.86 556.56 1435.33 571 1445C615.168 1474.59 662.223 1499.65 712 1518.42C731.177 1525.66 753.46 1536.21 774 1538z"/>
<path style="fill:#3797ee; stroke:none;" d="M510 359C468.43 392.849 431.709 434.459 400.579 478C252.075 685.71 231.784 961.061 345.753 1189C373.929 1245.35 410.679 1296.33 452.83 1343C469.097 1361.01 489.233 1386.71 511 1398L511 660L511 447L511 386L510 359z"/>
<path style="fill:#4bc7cc; stroke:none;" d="M1638 849C1630.66 859.623 1615.71 856 1604 856L1512 856L1126 856L1126 1016L1246 1016L1281 1016C1286.15 1016 1293.11 1014.8 1298 1016.6C1311.55 1021.6 1323.47 1040.3 1334 1049.83C1366.77 1079.48 1398.75 1110.75 1430 1142L1126 1142L1126 1542C1198.57 1518.79 1266.65 1493.66 1331 1451.66C1474.69 1357.85 1581.47 1208.24 1621.12 1041C1636.21 977.336 1640 914.15 1640 849L1638 849z"/>
<path style="fill:#45b8d7; stroke:none;" d="M1070 856L1070 1016L1126 1016L1126 856L1070 856z"/>
</svg>
